<svg id="Layer_1" data-name="Layer 1" xmlns="http://www.w3.org/2000/svg" viewBox="0 0 50 50"><defs><style>.cls-1{fill:#231f20;}</style></defs><title>icon</title><path class="cls-1" d="M38.8,2.5H11.2a8.71,8.71,0,0,0-8.7,8.7V38.8a8.71,8.71,0,0,0,8.7,8.7H38.8a8.71,8.71,0,0,0,8.7-8.7V11.2A8.71,8.71,0,0,0,38.8,2.5Zm2.48,5.29h1v7.62H34.7V7.79ZM18.56,20.49a7.93,7.93,0,1,1-1.51,4.63,8,8,0,0,1,1.53-4.74ZM43.08,39a4.31,4.31,0,0,1-4.31,4.31H11.2A4.31,4.31,0,0,1,6.89,39h0V20.49h6.72a12.3,12.3,0,1,0,22.81,0h6.71Z"/></svg>