<svg id="Layer_1" data-name="Layer 1" xmlns="http://www.w3.org/2000/svg" viewBox="0 0 50 50"><defs><style>.cls-1{fill:#a7a9ac;}</style></defs><title>icon</title><path class="cls-1" d="M25,47.5A22.5,22.5,0,1,1,47.5,25h0v3.39a7.77,7.77,0,0,1-7.11,7.86,7.52,7.52,0,0,1-7.83-7.17c0-.1,0-.21,0-.31V25a1.88,1.88,0,0,1,1.88-1.87h0A1.87,1.87,0,0,1,36.3,25h0v3.74a3.76,3.76,0,0,0,3.93,3.74,4,4,0,0,0,3.57-4.12V25a18.79,18.79,0,1,0-8.4,15.61,1.87,1.87,0,0,1,2.08,3.12A22.35,22.35,0,0,1,25,47.5Zm0-11.25A11.25,11.25,0,1,1,36.25,25h0A11.27,11.27,0,0,1,25,36.25Zm0-18.76A7.51,7.51,0,1,0,32.51,25h0A7.51,7.51,0,0,0,25,17.49Z"/></svg>