<svg id="Layer_1" data-name="Layer 1" xmlns="http://www.w3.org/2000/svg" viewBox="0 0 50 50"><defs><style>.cls-1{fill:#a7a9ac;stroke:#a7a9ac;stroke-miterlimit:10;stroke-width:0.5px;}</style></defs><title>icon</title><path class="cls-1" d="M24.9,2.6a22.4,22.4,0,0,0,0,44.8,21.74,21.74,0,0,0,8.56-1.75,1.05,1.05,0,1,0-.78-1.95h0a21.37,21.37,0,0,1-7.78,1.55A20.16,20.16,0,0,1,4.46,25.38V25a20.45,20.45,0,0,1,40.9,0,19.06,19.06,0,0,1-5.84,14.41c-.4.4-.78.77-1.18.77a2.38,2.38,0,0,1-1.56-.77l-1.74-2a3.41,3.41,0,0,0,1.18-3.11L32.7,29.08a2.18,2.18,0,0,0-3-.64l-.08,0-2.36,1.56c-.4-.19-1.36-.78-3.51-3.71-2.36-3.51-2.15-4.88-2.15-5.07l2.36-1.55a2.18,2.18,0,0,0,.64-3,.22.22,0,0,0-.05-.08L21.36,12l-.19-.19a4.29,4.29,0,0,0-1.74-.59,5.2,5.2,0,0,0-3.11,1.18l-.19.4a16.19,16.19,0,0,0-2.53,7.08v.4a28.79,28.79,0,0,0,4.48,9.74l.19.4.19.18A28.79,28.79,0,0,0,25.68,38l.19.19a15.81,15.81,0,0,0,4.88.77,12.5,12.5,0,0,0,2.73-.18h.19l1.74,2.14a4.6,4.6,0,0,0,3.12,1.37,3.29,3.29,0,0,0,2.52-1.18,20.7,20.7,0,0,0,6.44-15.77A22.9,22.9,0,0,0,24.9,2.6Zm1.74,33.69A24.66,24.66,0,0,1,20,29.22l-.4-.59a31.76,31.76,0,0,1-4.29-9,14.18,14.18,0,0,1,2.14-5.85A3.53,3.53,0,0,1,20,13.05l2.93,4.71v.4l-2.15,1.37a1.59,1.59,0,0,0-1,1c-.59,1.36.18,3.7,2.35,6.81S26.05,32,27.42,32a1.2,1.2,0,0,0,1.18-.59l2.15-1.37a.18.18,0,0,1,.18.19h0l3.12,4.48c0,.4-.4,1.18-1.56,1.95a7,7,0,0,1-2.15.19A12,12,0,0,1,26.64,36.29Z"/></svg>