<svg id="Layer_1" data-name="Layer 1" xmlns="http://www.w3.org/2000/svg" viewBox="0 0 50 50"><defs><style>.cls-1{fill:#a7a9ac;}</style></defs><title>icon</title><g id="Layer_1-2" data-name="Layer 1-2"><path class="cls-1" d="M17.2,6.59a9.41,9.41,0,0,1,5.17,1.52,12.17,12.17,0,0,1,2.89-.29,15.78,15.78,0,0,1,11.8,5A16.85,16.85,0,0,1,42,25.09a18.78,18.78,0,0,1-.39,3.65,10.79,10.79,0,0,1,1,4.48,9.76,9.76,0,0,1-2.87,7,9.19,9.19,0,0,1-6.83,3.09,9.36,9.36,0,0,1-4.56-1.23,20.45,20.45,0,0,1-3,.29,15.92,15.92,0,0,1-11.83-5,16.74,16.74,0,0,1-4.9-12.25,15.73,15.73,0,0,1,.39-3.42A10.15,10.15,0,0,1,10.36,9.6a9.22,9.22,0,0,1,6.84-3M25,32.92a5.43,5.43,0,0,1-2.45-.46,4,4,0,0,1-1.37-1.05c-.62-1.13-.94-1.72-1-1.74a3.82,3.82,0,0,0-.91-1.52,2.7,2.7,0,0,0-1.52-.54,2.49,2.49,0,0,0-1.74.68,2.15,2.15,0,0,0-.68,1.6A5.9,5.9,0,0,0,16.46,33a7.71,7.71,0,0,0,2.75,2.45,12.7,12.7,0,0,0,6,1.3A14.26,14.26,0,0,0,30.43,36a8,8,0,0,0,3.35-2.67,6.87,6.87,0,0,0,1.15-3.8,7.39,7.39,0,0,0-.59-3,6,6,0,0,0-1.91-2.06,14.77,14.77,0,0,0-3-1.34c-1.72-.52-2.94-.84-3.65-1l-1.25-.3-1-.27A7.07,7.07,0,0,1,22.1,21a2.63,2.63,0,0,1-1-.83,1.3,1.3,0,0,1-.39-1,1.92,1.92,0,0,1,1.05-1.6,4.68,4.68,0,0,1,2.89-.75,4.67,4.67,0,0,1,2.82.68,5.2,5.2,0,0,1,1.44,1.91,8.32,8.32,0,0,0,1,1.37,2.44,2.44,0,0,0,1.45.47,2.47,2.47,0,0,0,1.74-.76,2.27,2.27,0,0,0,.68-1.67,5.26,5.26,0,0,0-.54-2,10.53,10.53,0,0,0-1.59-1.81,9.55,9.55,0,0,0-2.82-1.45A14,14,0,0,0,25,13.08a13.24,13.24,0,0,0-4.9.84,6.73,6.73,0,0,0-3.25,2.27,6,6,0,0,0,0,6.94,7.16,7.16,0,0,0,2.84,2.05,20,20,0,0,0,4.41,1.38l1.1.27,1.15.31.81.2a4.51,4.51,0,0,1,1.74,1.08A1.87,1.87,0,0,1,29.54,30a2.43,2.43,0,0,1-1.22,2.13,6.1,6.1,0,0,1-3.43.91M17.2,1.69A14.27,14.27,0,0,0,6.76,6.1,14.7,14.7,0,0,0,2.5,16.59a14.77,14.77,0,0,0,1.18,5.87,19.66,19.66,0,0,0-.18,2.65A21.77,21.77,0,0,0,9.85,40.89,20.89,20.89,0,0,0,25.26,47.4a18.56,18.56,0,0,0,2.23-.15,14.07,14.07,0,0,0,5.36,1.06,14.23,14.23,0,0,0,10.39-4.44A14.69,14.69,0,0,0,47.5,33.34a16,16,0,0,0-.83-4.9,25.19,25.19,0,0,0,.22-3.13,21.77,21.77,0,0,0-6.3-15.66A20.75,20.75,0,0,0,25.21,3.11h-2A14.33,14.33,0,0,0,17.2,1.69Z"/></g></svg>