<svg id="Layer_1" data-name="Layer 1" xmlns="http://www.w3.org/2000/svg" viewBox="0 0 50 50"><defs><style>.cls-1{fill:#a7a9ac;}</style></defs><title>icon</title><path class="cls-1" d="M34.15,31.72a1.8,1.8,0,0,0,2.53,0h0L47,21.63a1.78,1.78,0,0,0-1-3.05L32.57,16.65l-6-12.12a1.78,1.78,0,0,0-2.39-.82,1.72,1.72,0,0,0-.82.82l-6,12.12L4,18.6a1.79,1.79,0,0,0-1.48,2,1.76,1.76,0,0,0,.51,1l9.68,9.43L10.45,44.39a1.79,1.79,0,0,0,1.46,2.06,1.81,1.81,0,0,0,1.14-.19L25,40l12,6.28a1.78,1.78,0,0,0,2.6-1.87l-2.8-14a1.79,1.79,0,1,0-3.53.61h0l2.26,10.45-9.59-5a1.77,1.77,0,0,0-1.67,0l-9.69,5.07L16.4,30.68a1.82,1.82,0,0,0-.52-1.58L8.12,21.63l10.72-1.56a1.8,1.8,0,0,0,1.36-1L25,9.37l4.8,9.73a1.77,1.77,0,0,0,1.35,1l10.73,1.56-7.72,7.56a1.77,1.77,0,0,0,0,2.52Z"/></svg>