<svg id="Layer_1" data-name="Layer 1" xmlns="http://www.w3.org/2000/svg" viewBox="0 0 50 50"><defs><style>.cls-1{fill:#fff;}.cls-2{fill:#6d6e71;}</style></defs><title>icon</title><path class="cls-1" d="M3.88,14.25V33.63a1,1,0,0,0,1,1H8.86a4.5,4.5,0,0,0,8.75,0H34.47a4.5,4.5,0,0,0,8.75,0h3.24a1,1,0,0,0,1-1V25.21a1,1,0,0,0-.69-.92L43.9,23.22l-1.38-7a1,1,0,0,0-1-.85H33.65v-1a1,1,0,0,0-1-1H4.92A1,1,0,0,0,3.88,14.25ZM36.42,33.63a2.43,2.43,0,1,1,2.43,2.43A2.42,2.42,0,0,1,36.42,33.63Zm-25.61,0a2.42,2.42,0,1,1,2.42,2.43A2.42,2.42,0,0,1,10.81,33.63ZM6,15.29H31.58V28.68a1,1,0,0,0,2.07,0V17.36h7.07L42,24.13a1,1,0,0,0,.66.79l2.77,1v6.64h-2.2a4.5,4.5,0,0,0-8.75,0H17.61a4.5,4.5,0,0,0-8.75,0H6Z"/><path class="cls-2" d="M2.5,12.86V32.25a1,1,0,0,0,1,1H7.47a4.5,4.5,0,0,0,8.75,0H33.09a4.5,4.5,0,0,0,8.75,0h3.24a1,1,0,0,0,1-1V23.83a1.06,1.06,0,0,0-.7-.93l-2.9-1.06-1.39-7a1,1,0,0,0-1-.84H32.27v-1a1,1,0,0,0-1-1H3.54A1,1,0,0,0,2.5,12.86ZM35,32.25a2.42,2.42,0,1,1,2.42,2.42A2.42,2.42,0,0,1,35,32.25Zm-25.62,0a2.43,2.43,0,1,1,2.43,2.42A2.43,2.43,0,0,1,9.42,32.25ZM4.58,13.9H30.19V27.29a1,1,0,0,0,2.08,0V16h7.06l1.27,6.77a1.06,1.06,0,0,0,.67.79l2.77,1v6.65h-2.2a4.5,4.5,0,0,0-8.75,0H16.22a4.5,4.5,0,0,0-8.75,0H4.58Z"/></svg>