<svg id="Layer_1" data-name="Layer 1" xmlns="http://www.w3.org/2000/svg" viewBox="0 0 50 50"><defs><style>.cls-1{fill:#fff;}.cls-2{fill:#6d6e71;}</style></defs><title>icon</title><path class="cls-1" d="M47.5,26v.17h0a1.7,1.7,0,0,1-.45.92c-.46.55-1,1.07-1.42,1.58a37.56,37.56,0,0,1-9.31,7,24.7,24.7,0,0,1-6.92,2.49,19.94,19.94,0,0,1-8-.11A30,30,0,0,1,9.1,31.61a33.44,33.44,0,0,1-4.73-4.56,1.74,1.74,0,0,1,0-2.35c.45-.55,1-1.07,1.42-1.58a37.59,37.59,0,0,1,9.24-7A25.47,25.47,0,0,1,22,13.28a20.31,20.31,0,0,1,8,.11,30.76,30.76,0,0,1,12.4,6.68A33.93,33.93,0,0,1,47,24.63a1.72,1.72,0,0,1,.46.92h0v.36M25.72,17.36a8.17,8.17,0,1,0,8.16,8.16h0a8.16,8.16,0,0,0-8.16-8.16m0,11.9A3.72,3.72,0,1,1,29.4,25.5v0a3.73,3.73,0,0,1-3.73,3.73h0"/><path class="cls-2" d="M46.08,24.53v.17h0a1.67,1.67,0,0,1-.45.92c-.45.55-1,1.08-1.41,1.59a38,38,0,0,1-9.32,7A24.7,24.7,0,0,1,28,36.72,20.26,20.26,0,0,1,20,36.61,30.12,30.12,0,0,1,7.68,30.19,33.29,33.29,0,0,1,3,25.64a1.74,1.74,0,0,1,0-2.35c.45-.56,1-1.08,1.41-1.59a37.55,37.55,0,0,1,9.24-7,25.25,25.25,0,0,1,6.93-2.84,20.08,20.08,0,0,1,8,.12,30.57,30.57,0,0,1,12.4,6.68,34,34,0,0,1,4.73,4.56,1.67,1.67,0,0,1,.45.92h0v.35M24.3,15.94a8.17,8.17,0,1,0,8.17,8.17h0a8.17,8.17,0,0,0-8.17-8.17m0,11.9A3.72,3.72,0,1,1,28,24.08v0a3.73,3.73,0,0,1-3.72,3.72h0"/></svg>