<svg id="Layer_1" data-name="Layer 1" xmlns="http://www.w3.org/2000/svg" viewBox="0 0 50 50"><defs><style>.cls-1{fill:#fff;}.cls-2{fill:#6d6e71;}</style></defs><title>icon</title><path class="cls-1" d="M19.46,44.58a4.53,4.53,0,0,1-3.15-1.3L5.87,32.45a4.45,4.45,0,1,1,6.3-6.3L18.51,30,39.89,8.78a4.46,4.46,0,1,1,6.3,6.31L22.61,43.28A4.44,4.44,0,0,1,19.46,44.58Z"/><path class="cls-2" d="M17.4,42.52a4.53,4.53,0,0,1-3.15-1.3L3.81,30.39a4.45,4.45,0,0,1,6.3-6.3L16.45,28,37.83,6.72A4.46,4.46,0,1,1,44.13,13L20.55,41.22A4.44,4.44,0,0,1,17.4,42.52Z"/></svg>