<svg id="Layer_1" data-name="Layer 1" xmlns="http://www.w3.org/2000/svg" viewBox="0 0 50 50"><defs><style>.cls-1{fill:#fff;}.cls-2{fill:#6d6e71;}</style></defs><title>icon</title><path class="cls-1" d="M4.7,36.71a11.68,11.68,0,0,0,4.18-1.4c9.24,9.76,24.88,8.58,31.71-3.08.48-1.1-1.05-2.45-2.3-2.91s-3.84-.16-4.4.83c-5,7.81-13.53,10.67-20.53,3a15.9,15.9,0,0,0,4.09-2.41c0-.15,0-.31-1.05-.82-2.1-1.07-10-4.23-10.93-3.79h0c-.87.41-1.16,5.89-1.19,7.33,0,3,.28,3.12.42,3.19Z"/><path class="cls-1" d="M47.07,15.07a11.44,11.44,0,0,0-4.17,1.4C33.66,6.71,18,7.89,11.19,19.54c-.48,1.11,1.05,2.46,2.29,2.92s3.84.16,4.41-.84c5-7.8,13.53-10.66,20.53-3A15.77,15.77,0,0,0,34.33,21c0,.14,0,.3,1.05.82,2.1,1.07,10,4.23,10.93,3.78h0c.87-.4,1.15-5.88,1.19-7.32,0-3-.28-3.13-.43-3.2Z"/><path class="cls-2" d="M2.93,34.93a11.44,11.44,0,0,0,4.17-1.4c9.24,9.76,24.88,8.58,31.71-3.07.48-1.11-1.05-2.46-2.29-2.92s-3.84-.16-4.41.84c-5,7.8-13.53,10.66-20.53,3A15.77,15.77,0,0,0,15.67,29c0-.14,0-.3-1.05-.82-2.1-1.07-10-4.23-10.93-3.78h0c-.87.4-1.15,5.88-1.19,7.32,0,3,.28,3.13.43,3.2Z"/><path class="cls-2" d="M45.3,13.29a11.68,11.68,0,0,0-4.18,1.4C31.88,4.93,16.24,6.11,9.41,17.77c-.48,1.1,1.05,2.45,2.3,2.91s3.84.16,4.4-.83c5-7.81,13.53-10.67,20.53-3a15.9,15.9,0,0,0-4.09,2.41c0,.15,0,.31,1.05.82,2.1,1.07,10,4.23,10.93,3.79h0c.87-.41,1.16-5.89,1.19-7.33,0-2.95-.28-3.12-.42-3.19Z"/></svg>