<svg id="Layer_1" data-name="Layer 1" xmlns="http://www.w3.org/2000/svg" viewBox="0 0 50 50"><defs><style>.cls-1{fill:#231f20;}.cls-2{fill:#ed1c24;}</style></defs><title>icon</title><path class="cls-1" d="M41.86,32.25H14.67a2.15,2.15,0,0,1-2.11-1.71L8.42,11,4.51,10.7A2.15,2.15,0,1,1,4.8,6.4l5.51.41a2.14,2.14,0,0,1,1.94,1.7l4.14,19.43H40.12L43.23,13.5a2.16,2.16,0,1,1,4.22.91h0L44,30.56A2.14,2.14,0,0,1,41.86,32.25Z"/><circle class="cls-1" cx="19.37" cy="39.31" r="4.3"/><circle class="cls-1" cx="37.5" cy="39.31" r="4.3"/><path class="cls-2" d="M38.31,18.5H18.24a2.16,2.16,0,0,1,0-4.32H38.31a2.16,2.16,0,0,1,0,4.32Z"/><path class="cls-2" d="M36.85,25.31H19.67a2.16,2.16,0,0,1,0-4.32H36.85a2.16,2.16,0,0,1,0,4.32Z"/></svg>