<svg id="Layer_1" data-name="Layer 1" xmlns="http://www.w3.org/2000/svg" viewBox="0 0 50 50"><title>icon</title><path d="M34.08,31.74a1.8,1.8,0,0,0,2.53,0L47,21.63a1.79,1.79,0,0,0,0-2.53,1.77,1.77,0,0,0-1-.52L32.59,16.63l-6-12.14a1.79,1.79,0,0,0-2.4-.8,1.77,1.77,0,0,0-.8.8l-6,12.14L4,18.58a1.8,1.8,0,0,0-1.5,2.05,1.82,1.82,0,0,0,.51,1l9.7,9.45L10.44,44.41a1.78,1.78,0,0,0,1.47,2.06A1.71,1.71,0,0,0,13,46.29L25,40l12,6.29a1.8,1.8,0,0,0,2.42-.75,1.84,1.84,0,0,0,.18-1.13l-2.85-14a1.82,1.82,0,0,0-3.59.61l2.21,10.47-9.61-5.05a1.77,1.77,0,0,0-1.67,0l-9.6,5.05,1.79-10.75a1.79,1.79,0,0,0-.52-1.58L8.11,21.63l10.75-1.56a1.82,1.82,0,0,0,1.35-1L25,9.35l4.8,9.73a1.8,1.8,0,0,0,1.35,1l10.75,1.56-7.76,7.56a1.8,1.8,0,0,0-.08,2.54Z"/></svg>