<svg id="Layer_1" data-name="Layer 1" xmlns="http://www.w3.org/2000/svg" viewBox="0 0 50 50"><defs><style>.cls-1{fill:#231f20;}</style></defs><title>icon</title><path class="cls-1" d="M47.4,19.81A1.77,1.77,0,0,0,46,18.59l-13.38-2-6-12.12a1.79,1.79,0,0,0-2.4-.81,1.86,1.86,0,0,0-.81.81l-6,12.12L4,18.59a1.79,1.79,0,0,0-1.5,2,1.82,1.82,0,0,0,.51,1l9.69,9.44L10.43,44.4a1.79,1.79,0,0,0,1.47,2.06A1.84,1.84,0,0,0,13,46.28L25,40l12,6.29a1.79,1.79,0,0,0,2.42-.76,1.81,1.81,0,0,0,.18-1.12l-2.6-13,10-9.75A1.78,1.78,0,0,0,47.4,19.81Z"/></svg>