<svg id="Layer_1" data-name="Layer 1" xmlns="http://www.w3.org/2000/svg" viewBox="0 0 50 50"><defs><style>.cls-1{fill:#231f20;}.cls-2{fill:#fff;}</style></defs><title>icon</title><path class="cls-1" d="M47.5,46.4H43.81a18.81,18.81,0,0,0-37.62,0H2.5a22.5,22.5,0,0,1,45,0Z"/><circle class="cls-2" cx="24.99" cy="16.86" r="11.41" transform="matrix(0.01, -1, 1, 0.01, 7.94, 41.71)"/><path class="cls-1" d="M25,7.29a9.57,9.57,0,1,1-9.56,9.57h0A9.58,9.58,0,0,1,25,7.29M25,3.6A13.26,13.26,0,1,0,38.25,16.86h0A13.26,13.26,0,0,0,25,3.6Z"/></svg>