<svg id="Layer_1" data-name="Layer 1" xmlns="http://www.w3.org/2000/svg" viewBox="0 0 50 50"><defs><style>.cls-1{fill:#fbb040;}</style></defs><title>icon</title><path class="cls-1" d="M24.34,4.28a2.38,2.38,0,0,0-.53.52l-5,14h-15a1.31,1.31,0,0,0-.77.25,1.65,1.65,0,0,0-.53.52,3.47,3.47,0,0,0,0,.91,1.62,1.62,0,0,0,.53.63l11.51,9L10.48,44.28a2.49,2.49,0,0,0,0,.77,1.76,1.76,0,0,0,.52.63,1.13,1.13,0,0,0,.63.25,1,1,0,0,0,.77-.25l12.57-8,12.56,8a1.29,1.29,0,0,0,1.54,0,1,1,0,0,0,.39-.63.87.87,0,0,0,0-.77l-4.1-14.21,11.66-9a1,1,0,0,0,.38-.63.81.81,0,0,0,0-.77,1,1,0,0,0-.38-.63,1.35,1.35,0,0,0-.77-.24h-15l-5-14a.87.87,0,0,0-.39-.53,1.3,1.3,0,0,0-.77-.24,1.43,1.43,0,0,0-.77.24"/></svg>