<svg id="Layer_1" data-name="Layer 1" xmlns="http://www.w3.org/2000/svg" viewBox="0 0 50 50"><defs><style>.cls-1{fill:#fff;}.cls-2{fill:#8dc63f;}</style></defs><title>icon</title><path class="cls-1" d="M18.84,44.49a4.63,4.63,0,0,1-3.25-1.32L4.9,32.09a4.56,4.56,0,0,1,6.45-6.45l6.5,4L39.72,7.92a4.56,4.56,0,1,1,6.44,6.45L22,43.17A4.54,4.54,0,0,1,18.84,44.49Z"/><path class="cls-2" d="M17.75,43.41a4.7,4.7,0,0,1-3.25-1.32L3.82,31a4.56,4.56,0,0,1,6.45-6.44l6.5,4L38.63,6.84a4.56,4.56,0,1,1,6.45,6.45L21,42.09A4.6,4.6,0,0,1,17.75,43.41Z"/></svg>