<svg id="Layer_1" data-name="Layer 1" xmlns="http://www.w3.org/2000/svg" viewBox="0 0 50 50"><defs><style>.cls-1{fill:#231f20;}</style></defs><title>icon</title><path class="cls-1" d="M25.23,2.5a22.5,22.5,0,0,0-9,43.12,19.53,19.53,0,0,1,.39-5.29l2.89-12.26a8.64,8.64,0,0,1-.72-3.57c0-3.34,1.93-5.83,4.34-5.83a3,3,0,0,1,3.07,3,3,3,0,0,1,0,.42,48,48,0,0,1-2,7.94,3.5,3.5,0,0,0,2.32,4.37,3.44,3.44,0,0,0,1.39.13c4.26,0,7.15-5.48,7.15-12,0-4.93-3.34-8.63-9.38-8.63A10.59,10.59,0,0,0,14.57,24c0,.23,0,.47,0,.7a6.52,6.52,0,0,0,1.49,4.42,1.1,1.1,0,0,1,.31,1.25l-.45,1.8a.75.75,0,0,1-.87.64.62.62,0,0,1-.26-.09,8.65,8.65,0,0,1-4.61-8.6C10.17,17.69,15.46,10,26.26,10A13.45,13.45,0,0,1,40.49,22.66a2.44,2.44,0,0,1,0,.27c0,8.85-4.89,15.44-12.15,15.44a6.49,6.49,0,0,1-5.61-2.68s-1.29,5.3-1.59,6.2a18.59,18.59,0,0,1-2.27,4.81A22.5,22.5,0,1,0,25.23,2.5"/></svg>