<svg id="Layer_1" data-name="Layer 1" xmlns="http://www.w3.org/2000/svg" viewBox="0 0 50 50"><defs><style>.cls-1{fill:#6d6e71;}</style></defs><title>icon</title><path class="cls-1" d="M41.19,29.73c-2.46,0-5.58-4.23-7.5-6.75l-.62-.82a27.17,27.17,0,0,1-2.76-6c-1.21-3.23-2-5.37-3.39-5.37-1.69,0-3.73,1.84-5.85,3.94A10.41,10.41,0,0,1,17,14a11.69,11.69,0,0,1-2-1.62C13.65,11.16,12.37,10,11.13,10c-2.48,0-4.22,4.65-4.7,6a8,8,0,0,1-1.6,2.37A7.6,7.6,0,0,0,2.5,23.42c0,4,6.35,5.83,11.43,7.29a28,28,0,0,1,4,1.32l2,1.06C24.47,35.51,33.05,40,37.24,40c9.25,0,10.26-3.87,10.26-5.52C47.5,32.33,44.68,29.73,41.19,29.73Zm-3.95,8.69c-3.78,0-12.39-4.5-16.5-6.74L18.67,30.6a29.69,29.69,0,0,0-4.27-1.42C10.3,28,4.11,26.18,4.11,23.4a4.08,4.08,0,0,1,.58-2c1.61,2,5.05,3.14,7.89,4a25,25,0,0,1,3,1.09C16.51,27,18,28,19.72,29.1c5.15,3.45,12.77,8.54,19.36,9.26C38.49,38.4,37.88,38.42,37.24,38.42Zm8.55-3.14a.81.81,0,0,0-.33.14c-6.46,4.69-18-3-24.87-7.62a49.38,49.38,0,0,0-4.3-2.72A25.79,25.79,0,0,0,13,23.9c-2.68-.86-6.35-2-7.38-3.9l.46-.54A9,9,0,0,0,8,16.56c1-3.07,2.46-5,3.2-5s1.89,1.16,2.8,2a12.2,12.2,0,0,0,2.37,1.87,12.48,12.48,0,0,0,5.09.87h.33L22,16.1c1.28-1.28,3.63-3.63,4.91-3.72a12.62,12.62,0,0,1,1.68,3.51l-2,1.36a.79.79,0,0,0,.87,1.32l1.74-1.15c.31.82.63,1.65,1,2.46l-2,1.33a.81.81,0,0,0-.18,1.11.79.79,0,0,0,1.07.21l1.8-1.2a12.62,12.62,0,0,0,1.08,1.8l.3.41h-.1L29.7,25.11a.79.79,0,0,0,.87,1.32l2.37-1.57a.86.86,0,0,0,.13-.14c2.15,2.88,5.13,6.59,8.12,6.59s4.74,2.05,4.74,3.16a2.75,2.75,0,0,1-.14.8Z"/></svg>