<svg id="Layer_1" data-name="Layer 1" xmlns="http://www.w3.org/2000/svg" viewBox="0 0 50 50"><defs><style>.cls-1{fill:#231f20;}</style></defs><title>icon</title><path class="cls-1" d="M17.69,45.12c-5.28,0-9.19-3.38-9.19-7.45s4.78-7.29,10.12-7.24a12,12,0,0,1,3.46.55c2.91,2,5,3.15,5.58,5.45a6.2,6.2,0,0,1,.15,1.43c0,4.06-2.64,7.24-10.12,7.24m1.4-23.79c-3.59,0-7-4-7.61-8.72s1.8-8.32,5.29-8.21,7,3.88,7.61,8.58-1.8,8.43-5.29,8.33m7.43,7c-1.27-.9-3.67-3.06-3.67-4.33s.42-2.22,2.64-4a9.37,9.37,0,0,0,3.94-7.27,8.3,8.3,0,0,0-4.5-7.92h4.42L32.46,2.5H18.54c-6.24,0-12.1,4.73-12.1,10.2a10.06,10.06,0,0,0,10,10.13H18.3a5.7,5.7,0,0,0-.71,2.64,5.3,5.3,0,0,0,1.9,3.86H17c-7.74,0-13.68,4.92-13.68,10S9.87,47.5,17.59,47.5c8.8,0,13.69-5,13.69-10a9.7,9.7,0,0,0-4.87-9M46.65,21.9H41.24V16.48H36.88V21.9H31.46v4.36h5.42v5.41h4.36V26.26h5.41Z"/></svg>