<svg id="Layer_1" data-name="Layer 1" xmlns="http://www.w3.org/2000/svg" viewBox="0 0 50 50"><defs><style>.cls-1{fill:#231f20;}</style></defs><title>icon</title><path class="cls-1" d="M47.5,11.18a18.59,18.59,0,0,1-5.27,1.45,9.28,9.28,0,0,0,4.06-5.09,18.63,18.63,0,0,1-5.86,2.24,9.22,9.22,0,0,0-15.81,8.41,26.13,26.13,0,0,1-19-9.62A9.23,9.23,0,0,0,8.48,20.88a9.22,9.22,0,0,1-4.16-1.16h0a9.23,9.23,0,0,0,7.38,9,9,9,0,0,1-2.42.32,9.16,9.16,0,0,1-1.74-.16,9.21,9.21,0,0,0,8.59,6.4A18.66,18.66,0,0,1,2.5,39.15,26.2,26.2,0,0,0,42.83,17.08V15.9a18.79,18.79,0,0,0,4.59-4.78"/></svg>