<?xml version="1.0" encoding="UTF-8"?>
<!-- Generator: Adobe Illustrator 19.0.1, SVG Export Plug-In . SVG Version: 6.00 Build 0)  -->
<svg version="1.1" id="Layer_1" xmlns="http://www.w3.org/2000/svg" xmlns:xlink="http://www.w3.org/1999/xlink" x="0px" y="0px" width="211px" height="86px" viewBox="0 0 211 86" style="enable-background:new 0 0 211 86;" xml:space="preserve">
<style type="text/css">
	.st0{fill-rule:evenodd;clip-rule:evenodd;fill:#E6E7E8;}
	.st1{fill:#E6E6E6;}
	.st2{fill:#EC1C24;}
	.st3{fill:#231F20;}
	.st4{fill:#404041;}
	.st5{fill:#E6E7E8;}
</style>
<g>
	<path class="st0" d="M1.1,44.1c0.4,0.6,2.2-0.2,2.8-0.4c1.5-0.4,2.9-1.1,4.3-1.6c4-1.7,8.1-1.9,12.3-0.4c4.5,1.6,9,3.3,13.5,5   c2.4,0.9,4.7,0.8,6.5-1.2c1.1-1.2,5.5-4.6,3.8-4.7c-7-0.6-14-3.2-17.1-5.5c-2.6-2.3-6.8-4.4-8.9-8.9c-2.6-5.4-3.6-11.2-3.7-11.1   C12.2,17,7,24.6,5.4,27.9C3.6,31.6,0.5,43.3,1.1,44.1z"/>
	<path class="st0" d="M89,12.7L71.5,23.8c0,0-16.2,9.5-22.3,10c-4.8,0.4-15.1-4-18.8-7.6c-3.6-3.5-10.3-17-12.4-15.5   c-1.8,1.3,3.3,13.5,6.4,16.8c4,4.3,13.9,9.4,21.7,10.1C54.8,38.5,83.2,20.6,89,12.7C89.1,12.6,86.2,14.7,89,12.7z"/>
	<path class="st0" d="M150.2,35.7c-0.5,1.4-1.2,2.6-1.4,3.9c-0.2,0.8-0.1,2,0.3,2.7c0.6,1,3.8,1.4,4.9,1c1.2-0.5,2.8-3.2,2.7-4.5   c-0.1-1.4-0.5-2.6-2.3-2.8c-0.7-0.1-1.3-0.6-1.9-1c-0.9-0.6-3.2-0.6-4.1,0.2C149.1,35.3,149.6,35.5,150.2,35.7z"/>
	<path class="st0" d="M110.4,20.6c-0.1,0.2-0.3,0.4-0.4,0.6c3,0.9,2,3.2,2.2,5.1c0,0.2,0,0.5,0,0.7c0,1.7,1.9,3,3.7,2.3   c0.8-0.3,1.3-1.2,1.9-1.8c0.9-0.9,1.4-3.4,0.8-4.4c-0.2-0.4-0.7-0.6-1.1-0.8c-0.8-0.3-1.6-0.4-2.4-0.6   C113.5,21.4,111.9,21,110.4,20.6z"/>
	<path class="st0" d="M102,15.8c-0.2,1.2-0.3,1.9-0.4,2.7c-0.2,1.3-0.6,2.7-0.5,4c0,0.7,0.7,1.5,1.3,1.8c0.5,0.3,1.5,0.2,2-0.2   c1.4-1.1,2.7-2.4,4-3.6c0.8-0.8,0.5-1.5-0.3-1.9c-1.5-0.9-3.1-1.8-4.7-2.6C102.8,15.7,102.2,15.8,102,15.8z"/>
	<path class="st0" d="M122.9,28.2c0.6,1.6,1.2,3.3,1.9,4.8c0.6,1.2,2.6,1.2,3.3,0c0.8-1.3,1.5-2.7,2.1-4.2c0.4-0.9,0-1.5-1-1.8   c-1.3-0.3-2.6-0.7-3.9-1.2c-1-0.4-2,0-2.1,1.1C123.2,27.3,123.1,28.2,122.9,28.2z"/>
	<path class="st0" d="M140.4,37.7c0.9-1.1,1.5-2,2.2-2.6c1-0.8,0.8-1.9,0.7-2.8c-0.1-0.4-0.9-0.8-1.5-1.1c-1.1-0.4-2.2-0.9-3.4-1.1   c-0.8-0.2-1.7,0-2.8,0c0.4,0.6,0.7,0.8,0.8,1.1c0.4,1.5,0.8,3,1.2,4.5C138.1,37.4,139.3,37.8,140.4,37.7z"/>
	<path class="st0" d="M163.3,41.4c-0.1,1-0.4,2-0.4,2.9c-0.1,1.8,1,2.9,2.7,2.9c2,0,4-1.5,4-3.1c0-0.2-0.1-0.5-0.3-0.6   c-2-1-4.1-2.1-6.1-3.1c-0.1-0.1-0.4,0.2-0.6,0.4C162.9,41.1,163.1,41.3,163.3,41.4z"/>
	<path class="st0" d="M93.6,7.2c-1.3-1.3-10.5-5.6-12.8-6.9c-0.1-0.1-0.2-0.1-0.3-0.1c0,0,0,0,0,0l0,0C80.3,0.1,80,0,79.6,0   c-1.9-0.1-2.5,1.5-3.5,2.6c-3,3.4-5.8,7-8.8,10.4c-1.2,1.4,0.6,4.4,0.8,4.8c0.6,1,1.1,0.9,1.9,0.1c1.4-1.4,2.9-2.7,4.4-4   c4.2-3.5,11.3-8,19-6.7C93.5,7.2,93.6,7.2,93.6,7.2z"/>
	<path class="st1" d="M196,60.1c-0.2,0.8-0.5,1.5-0.9,2.2c-0.4,0.6-0.8,1.2-1.3,1.7c-0.1,0.1-0.2,0.2-0.3,0.3l4.6,9   c2.1-0.3,4.2-0.7,6.4-1c-0.4-7.7-4.6-13-8.2-15.2c0,0.1,0,0.2,0,0.4C196.3,58.4,196.2,59.3,196,60.1z"/>
	<g>
		<g>
			<g>
				<path class="st2" d="M95,59.5c1,0.4,1.8,0.8,2.6,1.2c0.8,0.4,1.4,0.9,2,1.4c0.6,0.6,1,1.2,1.3,2c0.3,0.8,0.4,1.7,0.4,2.9      c0,1.2-0.2,2.3-0.6,3.3c-0.4,1-1,1.8-1.9,2.5c-0.8,0.7-1.8,1.2-3,1.6c-1.2,0.4-2.6,0.6-4.1,0.6c-1.4,0-2.7-0.1-3.8-0.3      c-1.1-0.2-2.3-0.6-3.5-1.1c0.1-0.8,0.3-1.7,0.5-2.6c0.2-0.9,0.5-1.8,0.8-2.8c2.1,0.9,3.9,1.4,5.5,1.4c1.2,0,2.1-0.2,2.7-0.5      c0.7-0.4,1-1,1-1.8c0-0.4-0.1-0.7-0.2-0.9c-0.1-0.3-0.3-0.5-0.5-0.7c-0.2-0.2-0.5-0.3-0.8-0.5c-0.3-0.1-0.6-0.2-0.9-0.4      l-1.9-0.7c-0.8-0.3-1.6-0.7-2.2-1.1c-0.7-0.4-1.3-0.9-1.7-1.5c-0.5-0.6-0.9-1.2-1.1-1.9C85.1,58.9,85,58,85,57      c0-1.2,0.2-2.3,0.6-3.2c0.4-0.9,1-1.7,1.7-2.4c0.7-0.7,1.6-1.1,2.7-1.5c1.1-0.3,2.2-0.5,3.5-0.5c1.2,0,2.3,0.1,3.4,0.3      c1.1,0.2,2.3,0.6,3.5,1c-0.1,0.7-0.3,1.5-0.5,2.4c-0.2,0.9-0.5,1.7-0.9,2.5c-0.6-0.2-1.3-0.5-2.1-0.8c-0.8-0.3-1.8-0.4-3-0.4      c-0.4,0-0.7,0-1,0.1c-0.3,0.1-0.6,0.2-0.9,0.3c-0.3,0.2-0.5,0.4-0.6,0.6c-0.2,0.3-0.2,0.6-0.2,1c0,0.7,0.2,1.2,0.7,1.5      c0.4,0.3,0.9,0.6,1.5,0.8L95,59.5z"/>
				<path class="st2" d="M115.9,61.7c0,0.8-0.1,1.7-0.3,2.7H109v4.9h8.6c0.2,1,0.3,1.8,0.3,2.6c0,0.8-0.1,1.8-0.3,2.7h-14.7V49.9      h14.5c0.1,0.5,0.2,1,0.2,1.4c0,0.4,0.1,0.8,0.1,1.2c0,0.8-0.1,1.7-0.3,2.7H109V59h6.6C115.8,60,115.9,60.9,115.9,61.7z"/>
				<path class="st2" d="M124.1,62.3c0,4.9,2,7.3,6.1,7.3c0.7,0,1.4-0.1,2.1-0.2c0.7-0.1,1.4-0.4,2.4-0.7c0.8,1.6,1.3,3.3,1.5,5.1      c-0.7,0.2-1.3,0.5-1.9,0.6c-0.6,0.2-1.1,0.3-1.7,0.4c-0.5,0.1-1,0.1-1.6,0.2c-0.5,0-1,0-1.6,0c-1.9,0-3.7-0.3-5.1-0.9      c-1.5-0.6-2.7-1.5-3.7-2.6c-1-1.1-1.7-2.5-2.3-4c-0.5-1.6-0.8-3.2-0.8-5.1c0-1.8,0.3-3.5,0.8-5.1c0.5-1.6,1.3-2.9,2.3-4.1      c1-1.1,2.2-2,3.7-2.7c1.5-0.6,3.1-1,5-1c1.1,0,2.1,0.1,3.1,0.2c1,0.2,2.1,0.5,3.3,1c0,0.9-0.2,1.8-0.5,2.7      c-0.3,0.9-0.6,1.7-0.9,2.3c-0.5-0.2-0.9-0.3-1.3-0.4c-0.4-0.1-0.7-0.2-1.1-0.3c-0.3-0.1-0.7-0.1-1-0.2c-0.3,0-0.7-0.1-1.1-0.1      c-1.9,0-3.3,0.6-4.3,1.9C124.6,57.9,124.1,59.8,124.1,62.3z"/>
				<path class="st2" d="M143.1,55.2h-5.7c-0.2-1-0.3-1.9-0.3-2.7c0-0.8,0.1-1.6,0.3-2.6h17.6c0.1,0.5,0.2,1,0.2,1.4      c0,0.4,0.1,0.8,0.1,1.2c0,0.8-0.1,1.7-0.3,2.7h-5.7v19.2c-1.2,0.2-2.2,0.3-3,0.3c-0.8,0-1.9-0.1-3.1-0.3V55.2z"/>
				<path class="st2" d="M154.9,62.3c0-1.8,0.2-3.5,0.6-5.1c0.4-1.6,1.1-2.9,2-4.1c0.9-1.1,2-2,3.4-2.7c1.4-0.6,3-1,4.9-1      c1.9,0,3.5,0.3,4.8,1c1.3,0.7,2.5,1.6,3.3,2.7c0.9,1.1,1.5,2.5,2,4.1c0.4,1.6,0.6,3.3,0.6,5.1c0,1.8-0.2,3.5-0.6,5.1      c-0.4,1.5-1.1,2.9-2,4c-0.9,1.1-2,2-3.3,2.6c-1.4,0.6-3,0.9-4.8,0.9c-1.9,0-3.5-0.3-4.9-0.9c-1.4-0.6-2.5-1.5-3.4-2.6      c-0.9-1.1-1.5-2.5-2-4C155.1,65.8,154.9,64.1,154.9,62.3z M170.1,62.3c0-5-1.5-7.5-4.4-7.5c-3,0-4.5,2.5-4.5,7.5      c0,2.5,0.4,4.4,1.1,5.6c0.7,1.2,1.8,1.8,3.3,1.8C168.7,69.7,170.1,67.2,170.1,62.3z"/>
				<path class="st2" d="M178.1,49.9c1.1-0.1,2.2-0.2,3.1-0.3c1-0.1,2-0.2,3-0.2c1.3,0,2.5,0.1,3.8,0.4c1.3,0.2,2.4,0.7,3.4,1.3      c1,0.6,1.8,1.4,2.4,2.4c0.6,1,0.9,2.3,0.9,3.9c0,0.8-0.1,1.6-0.3,2.3c-0.2,0.7-0.5,1.3-0.8,1.8c-0.3,0.5-0.7,1-1,1.4      c-0.4,0.4-0.7,0.7-1.1,1l5.4,10.6c-0.5,0.1-1.1,0.2-1.8,0.2c-0.7,0-1.2,0.1-1.8,0.1c-0.5,0-1,0-1.6-0.1c-0.6,0-1.1-0.1-1.6-0.2      l-4.9-11.2l0.3-0.2c0.3-0.1,0.6-0.4,0.9-0.7c0.3-0.3,0.6-0.7,0.9-1.2c0.3-0.4,0.5-0.9,0.7-1.5c0.2-0.6,0.3-1.1,0.3-1.7      c0-1.1-0.3-2-1-2.5c-0.6-0.5-1.4-0.8-2.4-0.8c-0.2,0-0.4,0-0.6,0c-0.2,0-0.3,0-0.3,0.1v19.7c-1.2,0.2-2.2,0.3-3,0.3      c-0.8,0-1.9-0.1-3.1-0.3V49.9z"/>
			</g>
			<path class="st3" d="M13.8,59.5c1,0.4,1.8,0.8,2.6,1.2c0.8,0.4,1.4,0.9,2,1.4c0.6,0.6,1,1.2,1.3,2c0.3,0.8,0.5,1.8,0.5,2.9     c0,1.2-0.2,2.3-0.6,3.3c-0.4,1-1.1,1.8-1.9,2.5c-0.8,0.7-1.8,1.2-3.1,1.6c-1.2,0.4-2.6,0.6-4.2,0.6c-1.4,0-2.7-0.1-3.8-0.3     c-1.1-0.2-2.3-0.6-3.5-1.1c0.1-0.8,0.3-1.7,0.5-2.6c0.2-0.9,0.5-1.8,0.8-2.8c2.1,0.9,4,1.4,5.5,1.4c1.2,0,2.1-0.2,2.8-0.5     c0.7-0.4,1-1,1-1.9c0-0.4-0.1-0.7-0.2-1c-0.1-0.3-0.3-0.5-0.6-0.7c-0.2-0.2-0.5-0.3-0.8-0.5c-0.3-0.1-0.6-0.3-0.9-0.4l-1.9-0.7     c-0.8-0.3-1.6-0.7-2.3-1.1c-0.7-0.4-1.3-0.9-1.7-1.5c-0.5-0.6-0.9-1.2-1.1-2c-0.3-0.7-0.4-1.6-0.4-2.6c0-1.2,0.2-2.3,0.6-3.3     c0.4-0.9,1-1.8,1.7-2.4c0.7-0.7,1.7-1.2,2.7-1.5c1.1-0.3,2.2-0.5,3.6-0.5c1.2,0,2.3,0.1,3.4,0.3c1.1,0.2,2.3,0.6,3.5,1     c-0.1,0.7-0.3,1.5-0.5,2.4c-0.2,0.9-0.6,1.7-0.9,2.5c-0.6-0.3-1.3-0.5-2.1-0.8c-0.8-0.3-1.8-0.4-3-0.4c-0.4,0-0.7,0-1.1,0.1     c-0.3,0.1-0.6,0.2-0.9,0.3c-0.3,0.2-0.5,0.4-0.6,0.6c-0.2,0.3-0.2,0.6-0.2,1c0,0.7,0.2,1.2,0.7,1.5c0.4,0.3,1,0.6,1.6,0.8     L13.8,59.5z"/>
			<path class="st3" d="M43.9,62.4c0-1.8,0.2-3.6,0.6-5.1c0.4-1.6,1.1-2.9,2-4.1c0.9-1.2,2-2.1,3.4-2.7c1.4-0.7,3-1,4.9-1     c1.9,0,3.5,0.3,4.9,1c1.4,0.7,2.5,1.6,3.4,2.7c0.9,1.2,1.5,2.5,2,4.1c0.4,1.6,0.6,3.3,0.6,5.1c0,1.8-0.2,3.5-0.6,5.1     c-0.4,1.6-1.1,2.9-2,4c-0.9,1.1-2,2-3.4,2.7c-1.4,0.6-3,1-4.9,1c-1.9,0-3.5-0.3-4.9-1c-1.4-0.6-2.5-1.5-3.4-2.7     c-0.9-1.1-1.5-2.5-2-4C44.1,65.9,43.9,64.2,43.9,62.4z M59.2,62.4c0-5-1.5-7.6-4.4-7.6c-3,0-4.5,2.5-4.5,7.6     c0,2.5,0.4,4.4,1.1,5.6c0.7,1.2,1.9,1.9,3.4,1.9C57.7,69.8,59.2,67.3,59.2,62.4z"/>
			<path class="st3" d="M67.3,49.9c0.5-0.1,1.3-0.2,2.4-0.3c1.1-0.1,2.5-0.2,4.1-0.2c1.2,0,2.5,0.1,3.7,0.3c1.2,0.2,2.4,0.7,3.4,1.3     c1,0.6,1.8,1.5,2.4,2.7c0.6,1.2,0.9,2.7,0.9,4.5c0,1.6-0.2,3-0.7,4.1c-0.5,1.1-1.2,2-2,2.6c-0.8,0.6-1.8,1.1-2.8,1.4     c-1.1,0.3-2.1,0.4-3.2,0.4c-0.4,0-0.9,0-1.3,0c-0.4,0-0.8-0.1-1-0.1v8.1c-0.6,0.1-1.1,0.2-1.6,0.2c-0.5,0-0.9,0.1-1.4,0.1     c-0.8,0-1.8-0.1-3-0.3V49.9z M73.3,61.6c0.1,0,0.3,0.1,0.6,0.1c0.3,0,0.6,0,0.9,0c1,0,1.8-0.3,2.4-0.9c0.6-0.6,0.9-1.5,0.9-2.6     c0-0.7-0.1-1.3-0.3-1.7c-0.2-0.5-0.5-0.9-0.8-1.1c-0.3-0.3-0.7-0.5-1.2-0.6c-0.5-0.1-0.9-0.2-1.5-0.2c-0.1,0-0.3,0-0.5,0     c-0.2,0-0.4,0-0.6,0V61.6z"/>
			<path class="st3" d="M38.3,74.9c-0.9,0-1.9-0.1-3.1-0.3V64.5H29v10.1c-1.2,0.2-2.2,0.3-3,0.3c-0.9,0-1.9-0.1-3.1-0.3V49.9     c0.6-0.1,1.2-0.2,1.7-0.2c0.5,0,1-0.1,1.3-0.1c0.4,0,0.9,0,1.4,0.1c0.5,0,1.1,0.1,1.7,0.2v9.2h6.1v-9.2c0.6-0.1,1.2-0.2,1.7-0.2     c0.5,0,1-0.1,1.4-0.1c0.4,0,0.9,0,1.4,0.1c0.5,0,1.1,0.1,1.7,0.2v24.7C40.1,74.8,39.1,74.9,38.3,74.9z"/>
		</g>
		<g>
			<path class="st4" d="M91.6,83.9c0.1,0,0.2,0,0.3,0c0.1,0,0.2,0,0.4,0c0,0.1,0,0.2,0.1,0.4c0,0.1,0,0.2,0,0.3c0,0.1,0,0.2,0,0.3     c0,0.1,0,0.2-0.1,0.4c-0.1,0-0.2,0-0.4,0c-0.1,0-0.2,0-0.3,0c-0.1,0-0.2,0-0.3,0c-0.1,0-0.2,0-0.4,0c0-0.1,0-0.2,0-0.4     c0-0.1,0-0.2,0-0.3c0-0.1,0-0.2,0-0.3c0-0.1,0-0.2,0-0.4c0.1,0,0.2,0,0.4,0C91.3,83.9,91.5,83.9,91.6,83.9z"/>
			<path class="st4" d="M94.6,82.4c0,1.1,0.5,1.7,1.4,1.7c0.2,0,0.3,0,0.5,0c0.2,0,0.3-0.1,0.6-0.2c0.2,0.4,0.3,0.8,0.4,1.2     c-0.2,0.1-0.3,0.1-0.4,0.1c-0.1,0-0.3,0.1-0.4,0.1c-0.1,0-0.2,0-0.4,0c-0.1,0-0.2,0-0.4,0c-0.5,0-0.9-0.1-1.2-0.2     c-0.4-0.1-0.6-0.4-0.9-0.6c-0.2-0.3-0.4-0.6-0.5-0.9c-0.1-0.4-0.2-0.8-0.2-1.2c0-0.4,0.1-0.8,0.2-1.2c0.1-0.4,0.3-0.7,0.5-1     c0.2-0.3,0.5-0.5,0.9-0.6c0.3-0.2,0.7-0.2,1.2-0.2c0.3,0,0.5,0,0.7,0.1c0.2,0,0.5,0.1,0.8,0.2c0,0.2-0.1,0.4-0.1,0.6     c-0.1,0.2-0.1,0.4-0.2,0.5c-0.1,0-0.2-0.1-0.3-0.1c-0.1,0-0.2,0-0.3-0.1c-0.1,0-0.2,0-0.2,0c-0.1,0-0.2,0-0.3,0     c-0.4,0-0.8,0.1-1,0.4C94.7,81.4,94.6,81.8,94.6,82.4z"/>
			<path class="st4" d="M97.6,82.4c0-0.4,0.1-0.8,0.2-1.2c0.1-0.4,0.3-0.7,0.5-1c0.2-0.3,0.5-0.5,0.8-0.6c0.3-0.2,0.7-0.2,1.1-0.2     c0.4,0,0.8,0.1,1.1,0.2c0.3,0.2,0.6,0.4,0.8,0.6c0.2,0.3,0.4,0.6,0.5,1c0.1,0.4,0.2,0.8,0.2,1.2c0,0.4-0.1,0.8-0.2,1.2     c-0.1,0.4-0.3,0.7-0.5,0.9c-0.2,0.3-0.5,0.5-0.8,0.6c-0.3,0.2-0.7,0.2-1.1,0.2c-0.4,0-0.8-0.1-1.1-0.2c-0.3-0.1-0.6-0.4-0.8-0.6     c-0.2-0.3-0.4-0.6-0.5-0.9C97.7,83.2,97.6,82.8,97.6,82.4z M101.2,82.4c0-1.2-0.3-1.8-1-1.8c-0.7,0-1.1,0.6-1.1,1.8     c0,0.6,0.1,1,0.3,1.3c0.2,0.3,0.4,0.4,0.8,0.4C100.9,84.2,101.2,83.6,101.2,82.4z"/>
			<path class="st4" d="M103.7,79.5c0.1,0,0.2,0,0.4,0c0.1,0,0.3,0,0.4,0c0.1,0,0.2,0,0.3,0c0.1,0,0.2,0,0.4,0l1.1,3l1.2-3     c0.1,0,0.2,0,0.3,0c0.1,0,0.2,0,0.3,0c0.1,0,0.2,0,0.3,0c0.1,0,0.2,0,0.3,0l0.3,5.8c-0.1,0-0.2,0-0.3,0c-0.1,0-0.2,0-0.4,0     c-0.2,0-0.4,0-0.7-0.1l-0.1-3.4l-0.9,2.2c-0.1,0-0.2,0-0.3,0c-0.1,0-0.2,0-0.3,0c-0.1,0-0.2,0-0.3,0c-0.1,0-0.2,0-0.3,0l-0.8-2.2     l-0.1,3.3c-0.2,0-0.4,0.1-0.6,0.1c-0.2,0-0.4,0-0.7-0.1L103.7,79.5z"/>
		</g>
	</g>
	<rect x="117.5" y="83" class="st4" width="79.4" height="1"/>
	<path class="st0" d="M196,54c-0.1,0-0.2,0-0.3-0.1c0.2,0.7,0.3,1.4,0.4,2.1c0.1,0,0.2,0.1,0.3,0.1c5.3,3.1,8.6,8,8.8,15.7   c1.8-0.6,3.5-1.1,5.3-1.6C208.7,61.3,203.8,56,196,54z"/>
	<g>
		<path class="st5" d="M82.5,36.7c13,0.6,29.7,4.6,29.7,4.6l21,4.9c-0.8-0.2-1.7-0.4,0.7,0.2c-7.2-3.6-41.3-12.4-55.4-11.8    c-9.7,0.4-19.7,3.1-24.6,5c-3.8,1.5-9.9,7-8,7.7c0,0.2,0.1,0.3,0.3,0.3c1,0.2,2.9-0.8,5.1-1.9c1.6-0.8,3.3-1.8,4.9-2.7    c0.5-0.3,1-0.5,1.5-0.6c3.4-1.2,13-3,17.5-3.1c5.7-0.1,21,2.1,21,2.1l16,2.6c-0.6-0.1-1.3-0.2,0.5,0.1c-5.5-2.2-27.5-6.9-40.5-5.9    c-2.7,0.2-5.6,0.6-8.4,1.1C69.3,37.4,77.4,36.4,82.5,36.7z"/>
		<path class="st5" d="M133.9,46.3l-0.7-0.2C133.6,46.2,133.9,46.3,133.9,46.3z"/>
		<path class="st5" d="M112.7,43.9l-0.5-0.1C112.5,43.9,112.8,43.9,112.7,43.9z"/>
	</g>
	<rect x="3" y="83" class="st4" width="79.4" height="1"/>
</g>
</svg>